<svg xmlns="http://www.w3.org/2000/svg" viewBox="0 0 36 36">
  <rect width="36" height="36" rx="10" fill="#0A1428"/>
  <rect x="0.5" y="0.5" width="35" height="35" rx="9.5" stroke="rgba(74,142,255,0.35)" stroke-width="1"/>
  <path d="M10 9h8.5c2.8 0 4.5 1.5 4.5 3.8 0 1.4-.7 2.5-1.8 3.2 1.6.6 2.8 1.9 2.8 3.8 0 2.7-2 4.2-5.2 4.2H10V9z" fill="#4A8EFF" opacity="0.95"/>
  <path d="M13 12h5c1 0 1.8.7 1.8 1.8s-.8 1.8-1.8 1.8h-5v-3.6z" fill="#04080F"/>
  <path d="M13 17h5.5c1.2 0 2 .8 2 2s-.8 2-2 2H13v-4z" fill="#04080F"/>
  <circle cx="27" cy="13" r="1.5" fill="#00D4FF" opacity="0.9"/>
  <circle cx="27" cy="19" r="1.5" fill="#7B5CF0" opacity="0.7"/>
  <circle cx="27" cy="25" r="1.5" fill="#4A8EFF" opacity="0.5"/>
</svg>